HIERARCHY
ROOT hips
{
  OFFSET 4.514983404067499e-9 10.105397940993303 1.318478203070619
  CHANNELS 6 Xposition Yposition Zposition Yrotation Xrotation Zrotation
  JOINT spine
  {
    OFFSET -3.891297943093837e-9 0.5743022203102706 0
    CHANNELS 3 Yrotation Xrotation Zrotation
    JOINT chest
    {
      OFFSET 0 1.2550312016247926 0
      CHANNELS 3 Yrotation Xrotation Zrotation
      JOINT upperChest
      {
        OFFSET 0 1.2059856050120283 0
        CHANNELS 3 Yrotation Xrotation Zrotation
        JOINT neck
        {
          OFFSET 0 1.5290392449770056 0
          CHANNELS 3 Yrotation Xrotation Zrotation
          JOINT head
          {
            OFFSET 0 0.8186276690878121 0
            CHANNELS 3 Yrotation Xrotation Zrotation
            JOINT leftEye
            {
              OFFSET 0.4540883942785781 -0.2684596961258452 0.6133497327236779
              CHANNELS 3 Yrotation Xrotation Zrotation
              End Site
              {
                OFFSET 0.4540883942785781 -0.2684596961258452 0.6133497327236779
              }
            }
            JOINT rightEye
            {
              OFFSET -0.4540889229417456 -0.26846010916843954 0.6133525398671689
              CHANNELS 3 Yrotation Xrotation Zrotation
              End Site
              {
                OFFSET -0.4540889229417456 -0.26846010916843954 0.6133525398671689
              }
            }
          }
        }
        JOINT leftShoulder
        {
          OFFSET 1.1700010731725468 -0.4176065950681176 0
          CHANNELS 3 Yrotation Xrotation Zrotation
          JOINT leftUpperArm
          {
            OFFSET 1.1803911524554955 0 0
            CHANNELS 3 Yrotation Xrotation Zrotation
            JOINT leftLowerArm
            {
              OFFSET 2.4406171707858904 0 0
              CHANNELS 3 Yrotation Xrotation Zrotation
              JOINT leftHand
              {
                OFFSET 2.3832177068873874 0 0
                CHANNELS 3 Yrotation Xrotation Zrotation
                JOINT leftIndexProximal
                {
                  OFFSET 0.7310175006235151 0.08192774217833776 0.20404791572985242
                  CHANNELS 3 Yrotation Xrotation Zrotation
                  JOINT leftIndexIntermediate
                  {
                    OFFSET 0.3688845439429529 -0.010662034455094949 -0.014226011560394963
                    CHANNELS 3 Yrotation Xrotation Zrotation
                    JOINT leftIndexDistal
                    {
                      OFFSET 0.2271119941018298 -0.007897656478952575 -0.007580683836364496
                      CHANNELS 3 Yrotation Xrotation Zrotation
                      End Site
                      {
                        OFFSET 0.2271119941018298 -0.007897656478952575 -0.007580683836364496
                      }
                    }
                  }
                }
                JOINT leftLittleProximal
                {
                  OFFSET 0.678269929308182 0.08192620621401336 -0.323876516389586
                  CHANNELS 3 Yrotation Xrotation Zrotation
                  JOINT leftLittleIntermediate
                  {
                    OFFSET 0.34904545821382604 -0.0000017106393073174075 8.629360392919949e-9
                    CHANNELS 3 Yrotation Xrotation Zrotation
                    JOINT leftLittleDistal
                    {
                      OFFSET 0.2011060672849896 0.0031247840072243793 0.0038660318003989197
                      CHANNELS 3 Yrotation Xrotation Zrotation
                      End Site
                      {
                        OFFSET 0.2011060672849896 0.0031247840072243793 0.0038660318003989197
                      }
                    }
                  }
                }
                JOINT leftMiddleProximal
                {
                  OFFSET 0.7368181082522638 0.0819260272939426 0.02272335773438093
                  CHANNELS 3 Yrotation Xrotation Zrotation
                  JOINT leftMiddleIntermediate
                  {
                    OFFSET 0.41136739116025356 -0.0000015892429323649537 5.27860346960507e-8
                    CHANNELS 3 Yrotation Xrotation Zrotation
                    JOINT leftMiddleDistal
                    {
                      OFFSET 0.25378150303820757 -0.0000015332469289752737 1.3442958385345705e-8
                      CHANNELS 3 Yrotation Xrotation Zrotation
                      End Site
                      {
                        OFFSET 0.25378150303820757 -0.0000015332469289752737 1.3442958385345705e-8
                      }
                    }
                  }
                }
                JOINT leftRingProximal
                {
                  OFFSET 0.7284256823094712 0.08192611199801392 -0.1508405069143483
                  CHANNELS 3 Yrotation Xrotation Zrotation
                  JOINT leftRingIntermediate
                  {
                    OFFSET 0.381593741461262 -0.0000016975471202052006 6.592486757883709e-8
                    CHANNELS 3 Yrotation Xrotation Zrotation
                    JOINT leftRingDistal
                    {
                      OFFSET 0.22014536669820362 -0.0027420652959939673 -0.005037497035641991
                      CHANNELS 3 Yrotation Xrotation Zrotation
                      End Site
                      {
                        OFFSET 0.22014536669820362 -0.0027420652959939673 -0.005037497035641991
                      }
                    }
                  }
                }
                JOINT leftThumbProximal
                {
                  OFFSET 0.10842212958334652 -0.16573713992498873 -0.07779936144556289
                  CHANNELS 3 Yrotation Xrotation Zrotation
                  JOINT leftThumbIntermediate
                  {
                    OFFSET 0.40720553822379024 -0.01751267955631075 0.31852684427382305
                    CHANNELS 3 Yrotation Xrotation Zrotation
                    JOINT leftThumbDistal
                    {
                      OFFSET 0.23412859218032667 -0.01859690713588802 0.2146635043319005
                      CHANNELS 3 Yrotation Xrotation Zrotation
                      End Site
                      {
                        OFFSET 0.23412859218032667 -0.01859690713588802 0.2146635043319005
                      }
                    }
                  }
                }
              }
            }
          }
        }
        JOINT rightShoulder
        {
          OFFSET -1.1700037144859516 -0.41760703856471126 0
          CHANNELS 3 Yrotation Xrotation Zrotation
          JOINT rightUpperArm
          {
            OFFSET -1.1803910289368023 0 0
            CHANNELS 3 Yrotation Xrotation Zrotation
            JOINT rightLowerArm
            {
              OFFSET -2.440617418222133 0 0
              CHANNELS 3 Yrotation Xrotation Zrotation
              JOINT rightHand
              {
                OFFSET -2.3832181162662343 0 0
                CHANNELS 3 Yrotation Xrotation Zrotation
                JOINT rightIndexProximal
                {
                  OFFSET -0.7310168852843362 0.08192787643494381 0.20404785424302163
                  CHANNELS 3 Yrotation Xrotation Zrotation
                  JOINT rightIndexIntermediate
                  {
                    OFFSET -0.3688846010723953 -0.01066191355993129 -0.014226020535245201
                    CHANNELS 3 Yrotation Xrotation Zrotation
                    JOINT rightIndexDistal
                    {
                      OFFSET -0.22711216276130997 -0.007898902439410271 -0.007580718044857868
                      CHANNELS 3 Yrotation Xrotation Zrotation
                      End Site
                      {
                        OFFSET -0.22711216276130997 -0.007898902439410271 -0.007580718044857868
                      }
                    }
                  }
                }
                JOINT rightLittleProximal
                {
                  OFFSET -0.6782685897119165 0.08192501740206293 -0.3238766118101876
                  CHANNELS 3 Yrotation Xrotation Zrotation
                  JOINT rightLittleIntermediate
                  {
                    OFFSET -0.34904682243945895 -2.664019085329983e-7 3.792712677253007e-8
                    CHANNELS 3 Yrotation Xrotation Zrotation
                    JOINT rightLittleDistal
                    {
                      OFFSET -0.20110609302945537 0.0031260842677420797 0.0038661724369087186
                      CHANNELS 3 Yrotation Xrotation Zrotation
                      End Site
                      {
                        OFFSET -0.20110609302945537 0.0031260842677420797 0.0038661724369087186
                      }
                    }
                  }
                }
                JOINT rightMiddleProximal
                {
                  OFFSET -0.7368168209984411 0.08192485183145659 0.022723294831187846
                  CHANNELS 3 Yrotation Xrotation Zrotation
                  JOINT rightMiddleIntermediate
                  {
                    OFFSET -0.4113687575187084 -9.03141548214137e-8 4.759541079313312e-8
                    CHANNELS 3 Yrotation Xrotation Zrotation
                    JOINT rightMiddleDistal
                    {
                      OFFSET -0.2537822083525749 -9.554208624251714e-8 -1.6364827826187422e-9
                      CHANNELS 3 Yrotation Xrotation Zrotation
                      End Site
                      {
                        OFFSET -0.2537822083525749 -9.554208624251714e-8 -1.6364827826187422e-9
                      }
                    }
                  }
                }
                JOINT rightRingProximal
                {
                  OFFSET -0.7284243957721679 0.08192492753028224 -0.15084062217729294
                  CHANNELS 3 Yrotation Xrotation Zrotation
                  JOINT rightRingIntermediate
                  {
                    OFFSET -0.381595106800805 -2.5662436442530634e-7 2.929475539925619e-8
                    CHANNELS 3 Yrotation Xrotation Zrotation
                    JOINT rightRingDistal
                    {
                      OFFSET -0.22014544912608125 -0.002738002524970362 -0.0050375115645966
                      CHANNELS 3 Yrotation Xrotation Zrotation
                      End Site
                      {
                        OFFSET -0.22014544912608125 -0.002738002524970362 -0.0050375115645966
                      }
                    }
                  }
                }
                JOINT rightThumbProximal
                {
                  OFFSET -0.10842026863657162 -0.16573778435706465 -0.07779917642461898
                  CHANNELS 3 Yrotation Xrotation Zrotation
                  JOINT rightThumbIntermediate
                  {
                    OFFSET -0.40720600760521597 -0.017512298079938038 0.3185267362029824
                    CHANNELS 3 Yrotation Xrotation Zrotation
                    JOINT rightThumbDistal
                    {
                      OFFSET -0.2341289751103648 -0.018594162598156494 0.21466399510514025
                      CHANNELS 3 Yrotation Xrotation Zrotation
                      End Site
                      {
                        OFFSET -0.2341289751103648 -0.018594162598156494 0.21466399510514025
                      }
                    }
                  }
                }
              }
            }
          }
        }
      }
    }
  }
  JOINT leftUpperLeg
  {
    OFFSET -0.8565189721517369 0.4427277044191169 0
    CHANNELS 3 Yrotation Xrotation Zrotation
    JOINT leftLowerLeg
    {
      OFFSET 0 -3.918486704769693 0
      CHANNELS 3 Yrotation Xrotation Zrotation
      JOINT leftFoot
      {
        OFFSET 6.174701361744139e-7 -0.055233446196002234 4.612027801972084
        CHANNELS 3 Yrotation Xrotation Zrotation
        JOINT leftToes
        {
          OFFSET -3.4372540951010944e-7 -0.705284859504459 1.2256624571888697
          CHANNELS 3 Yrotation Xrotation Zrotation
          End Site
          {
            OFFSET -3.4372540951010944e-7 -0.705284859504459 1.2256624571888697
          }
        }
      }
    }
  }
  JOINT rightUpperLeg
  {
    OFFSET 0.8565189732197466 0.44272769569168136 0
    CHANNELS 3 Yrotation Xrotation Zrotation
    JOINT rightLowerLeg
    {
      OFFSET 0 -3.918486692649319 0
      CHANNELS 3 Yrotation Xrotation Zrotation
      JOINT rightFoot
      {
        OFFSET 6.995136552362391e-7 -0.05523244834012664 4.612028499942008
        CHANNELS 3 Yrotation Xrotation Zrotation
        JOINT rightToes
        {
          OFFSET -4.2566694985479714e-7 -0.7052846587611067 1.22566236096697
          CHANNELS 3 Yrotation Xrotation Zrotation
          End Site
          {
            OFFSET -4.2566694985479714e-7 -0.7052846587611067 1.22566236096697
          }
        }
      }
    }
  }
}
MOTION
Frames: 4
Frame Time: 0.03333333333333333
-1.3829996585845947 -0.30169272553920123 -0.1964959055185318 25.535645776494043 2.60673588286016 1.4995470838270821 2.935456184850967 0.5471886994764046 -1.089645598669395 9.851643186657377 12.470331030077107 -12.186244174657359 0 0 0 1.4513868234554042 5.3175312928714344 1.1125124326968776 14.469753005102493 23.83486592556255 -12.63655698402755 0 0 0 0 0 0 2.128737226789424 0.491012514690367 -7.389924330161291 14.679459684215523 23.98184997007216 -48.25231571352127 -48.37908843589416 0.24853941051680525 0.5533031466876678 0.5759806192655029 -6.964992032415007 8.36486050671119 4.59024512114381 0.4621543403498723 -13.835219910412917 0.9601398124220308 0.09074079526317311 -10.797898039507071 0.743936745149969 0.05427241778653036 -8.346702935510518 5.074602072910579 0.8433678383927339 -32.61048210733145 2.5223602567952925 0.6635417766858611 -29.474782888210893 2.384084603779247 0.5881793712119916 -27.715601185438995 4.7501621791997675 0.6043728124284599 -19.80822008141838 1.486157273416452 0.2202060944199414 -16.85623556370246 1.2954730607724765 0.16639702232061376 -14.64148549185191 4.948655578041337 0.7592387269047944 -27.274857160153122 2.1197878713491978 0.45887926557655523 -24.428008836855096 1.9618559565678828 0.3903055877010203 -22.504301957019923 -5.177784869251494 -5.782550902135449 6.011346453736657 11.292769406820131 5.289691785407123 1.6889774364611985 -0.6957838923579098 -7.658473384758107 13.166910107052336 -6.291109720044289 0.44147791433983746 8.071009540723914 21.396285660851927 16.999941996108422 42.087030342788495 44.07282762519155 0.20837057445093574 -0.5147983224655275 5.971732518438531 -19.414752869999468 -6.51150635655385 -2.8357720137490605 0.0612624462783975 14.762475391609001 -0.4999206058817773 0.03197923750401843 7.320889179549552 -0.45598305919190263 0.026573865774864817 6.6741865590879605 -5.360538221290431 1.4857341377966813 43.45017963612293 -1.552029737569225 0.3200315383693027 23.300808147848418 -1.3681087581969642 0.246258479596481 20.407204938692722 -3.5976422920619546 0.2730711430289154 21.925391617072467 -0.9221646548233385 0.10993254244067192 13.594594960378087 -0.7602735326912194 0.0743687880919185 11.1737589499596 -4.548176157429066 0.7630625828710055 32.037963502182976 -1.3835679046733582 0.25204034275748516 20.648078593114473 -1.1213222293117378 0.1636670831023101 16.606771071177526 6.592802451819521 -6.311940588706625 -5.727883650671096 -12.698629712465982 5.469771994006497 -2.9089886062373873 -5.438681719915049 -5.773677800501385 -14.437361989695017 -5.39500215618254 -17.712106849643288 6.921763549942274 -5.99320269100123 17.891805615644355 -1.8583264168269666 0.5778248076744222 -3.5327687918581714 -7.84569936135067 -0.0000032377904168448837 -0.009857749775770561 0.0000026033543352030033 -20.811257338761333 -15.227599960786963 5.883186942542165 -9.558450307761609 24.476050167774957 -4.943859246316461 -5.086883410924909 -13.423636272330144 -2.095957608885956 0.000051623215030127964 -0.023230624597085844 0.004151346195521212
-1.4095672369003296 -0.3139436258077559 -0.20134218037128448 26.19844041283093 2.548953557124586 1.5287816776150829 3.0292352293296907 0.6296203632318522 -1.1303151110467329 10.04441923079982 13.422570681692584 -12.8098137672273 0 0 0 1.3902655333462457 5.36456455770316 1.0676343917092215 14.41209673922523 24.096562508007388 -12.857996731068171 0 0 0 0 0 0 2.235312535653455 0.480750907050171 -7.240999547672827 15.217239756411525 24.235430809613955 -47.85489534167382 -48.7132386603009 0.2517936264694282 0.5561693944563983 0.4972002892126393 -7.331752030517472 8.40707727741055 4.588950078758544 0.4696003998305259 -14.263614315752092 0.9974272425765403 0.0979922315160809 -11.222891602598995 0.7450068779923298 0.05442075768924425 -8.35876574254821 5.027065805480163 0.8126085512450556 -32.760299087266915 2.5335044003577116 0.6698471618437614 -29.61778121119694 2.419929372940635 0.6071901561251831 -28.168778869306202 4.731485698413996 0.6015580316552047 -20.131867731066244 1.5150854266980607 0.2290519377369552 -17.194176338008894 1.3085586701499718 0.1698410399741771 -14.792837395982488 4.91081913474706 0.7405358002265681 -27.46766686513495 2.1384545845612446 0.46741061066393125 -24.657204011449075 1.988702113228952 0.4015269226112773 -22.82935272057484 -5.268221150861817 -5.803685577796083 5.886596858150575 11.383102887621284 5.323454681572177 1.7305531986214817 -0.6155688238999346 -7.610869295685668 13.134464705184355 -6.375957871602262 0.4456778594936805 8.136012603985655 21.548784949682858 16.74522627076253 41.27056231154019 45.04851200646721 0.21721226195665722 -0.5237810335376069 6.073512663828465 -19.805080704015033 -6.5667488595774905 -2.903707772883666 0.07383047668766396 15.473202999718502 -0.5001353516137973 0.03201144078375908 7.323880161838366 -0.45120439330600354 0.026033592084989992 6.6043530442205896 -5.45775168311277 1.6124582888371832 45.85135679510557 -1.5437089517891456 0.3164483551863616 23.168333545111384 -1.3637206956024677 0.24465438427784086 20.338885329888697 -3.6734355186772603 0.3014828729193258 22.918369919515836 -0.9325015477365365 0.11243811267611678 13.74953848879524 -0.757755413936437 0.0738552027934073 11.136276609243714 -4.635053751991852 0.8259640570465292 33.54950594265433 -1.3946456915504808 0.2562470336183423 20.821269724317517 -1.1200612942664254 0.1632929152787687 16.587402972176577 6.610296974703928 -6.318570673930105 -5.744721347037372 -12.735693684436871 5.482597434187758 -2.9199640348375104 -5.418134739980721 -5.7866017681434 -14.444596815434391 -5.819302742263796 -18.075453087674013 7.075990924330812 -6.361900062670046 18.299227521381997 -2.033464186045866 0.5887688015778061 -3.5934173010670887 -7.957136353710321 0.0000010316707715834566 -0.0061440336471525825 0.000003828970140596861 -21.24309268633166 -15.462534728598111 5.996168357955448 -9.559043982797903 25.015454631191457 -4.924536189806685 -5.409446587030724 -13.730739002901595 -2.1926684780815284 0.00005111956658385648 -0.022916355828502412 0.004014951262397215
-1.4347623586654663 -0.3263947976827559 -0.20568303763866425 26.84684234908233 2.50916224369994 1.5662694563954864 3.1206635914700556 0.7142771560212404 -1.177336177399447 10.217472611343808 14.38560363351572 -13.455036192738797 0 0 0 1.3278582877637193 5.406369706276793 1.0212109819490973 14.357461274966715 24.34353241635885 -13.10857260546574 0 0 0 0 0 0 2.353652849786206 0.47063782309318575 -7.112771633071604 15.7635715902113 24.44715329647697 -47.41436688664819 -49.035168983343354 0.2549100641478281 0.5589073688898553 0.4143520470877619 -7.651089032399904 8.450105347252855 4.55689259450981 0.46466766536641035 -14.454366146032159 1.0137685117340274 0.10126541786167606 -11.409030987792425 0.7456778697328654 0.05452979063624775 -8.366444264790278 5.00259907749038 0.7958890555904816 -33.04884924057035 2.555515549396385 0.6824402395146232 -29.90107541911539 2.4561133764697307 0.6267387573463974 -28.628229084468625 4.699417731227168 0.5919448193936284 -20.327180795588987 1.5330219363642097 0.23463240805927194 -17.40409332869093 1.3210541370827078 0.17317042526525556 -14.937174007039596 4.879785922817242 0.725055351068548 -27.668665233708605 2.1579227560018173 0.4763859971052799 -24.89677770120904 2.014661712100528 0.4125322359075583 -23.14434483135162 -5.409337256066317 -5.8411735164478085 5.738169980245459 11.550292307786867 5.38669265448975 1.7971346041265328 -0.5281792531893117 -7.5590003525052945 13.099749395397396 -6.450862761255164 0.44865329790746394 8.18240896349124 21.701536429432938 16.45386176133742 40.488018862114494 46.04628701579891 0.2264095674709892 -0.5328000927231422 6.173869394847966 -20.207352710358258 -6.586744395031266 -2.9737217838846073 0.08882757288418375 16.093303958410722 -0.49736646001545 0.03165591737639345 7.2831335287491505 -0.44756001124073186 0.025610498842030732 6.550643156792824 -5.558971583950139 1.7506262749782322 48.05916527195812 -1.533722299833413 0.31219879299649733 23.01002310506264 -1.36067734484813 0.24350511448048232 20.29135818603347 -3.7551342438421598 0.33454157821222896 23.80462071656956 -0.9394214096134119 0.1141309757028546 13.853630611431534 -0.7562568466695729 0.07357807964465993 11.113957888707919 -4.730107006768781 0.8975007215801779 34.923330800572934 -1.4024799980806055 0.2592393537623653 20.943926220757128 -1.1198110518609348 0.16321124616190708 16.583784819765032 6.619607591351081 -6.322125193929011 -5.760382030864513 -12.76308997129677 5.4921655540975935 -2.926309374043764 -5.394445685865877 -5.801384822122056 -14.45162438796275 -6.296077067773654 -18.445402906548214 7.249402900716416 -6.670219361578031 18.70436660158674 -2.241169027803093 0.5993767025825527 -3.659053218469089 -8.046114069744364 -0.00002733838621475947 -0.0048943308042622685 -0.0016714732710665745 -21.73365174982485 -15.713865186973921 6.10377256465698 -9.562782961599499 25.560358596972293 -4.914443496387507 -5.656552154588142 -14.043664804840402 -2.2878789324578612 0.00004785613530754503 -0.02279644230982904 0.003698432174648205
-1.4587782621383667 -0.3389003289937911 -0.20954185724258423 27.480082957680718 2.4817585097074875 1.6153039521275514 3.20800168160422 0.8019726775243265 -1.2296608633391077 10.36642416262668 15.356284570327892 -14.1125602040158 0 0 0 1.2656844632219197 5.442269004362619 0.9638735320560833 14.302682334806725 24.56309981088961 -13.378631510187658 0 0 0 0 0 0 2.495467694695435 0.4613583840195253 -7.024672112876271 16.314660314367732 24.603448929199118 -46.927258388504576 -49.324203313821315 0.25774219307636254 0.5613325751120968 0.30588747651199916 -7.909913153038722 8.495669194294099 4.522498905911168 0.45566817398829684 -14.450307631174336 1.0131155082489238 0.10113490368202742 -11.40155197793008 0.7457944444643689 0.05454249719509836 -8.367700118814495 5.026428851030632 0.8098132829696509 -33.48279176356908 2.589074082727342 0.7019144232737936 -30.334275049285594 2.4916390338844887 0.6463237192173545 -29.08135618078006 4.681716302795242 0.5864396092862758 -20.426618130929878 1.5429942872460891 0.23777386820544227 -17.52089437715455 1.332506337950266 0.17623245866127288 -15.069790110829992 4.882141385231858 0.7269854079833852 -27.89741050166265 2.179974276889611 0.48667379926957305 -25.16878355782475 2.0390793632170796 0.4230436695720076 -23.441333746478843 -5.597720158450207 -5.895372066431627 5.5743921409937744 11.787830630731758 5.4765794308066384 1.8868503455188117 -0.44122620666926393 -7.507423543205668 13.065084044707323 -6.49283565743358 0.4492250236356654 8.194596905797528 21.830574101996852 16.1207653035488 39.74281015669264 47.07580397762025 0.23608220798364649 -0.5419476938660474 6.249955709894149 -20.60359977171391 -6.565590540877463 -3.023276799476338 0.09964176467462622 16.601927494735595 -0.491556837267429 0.030918403578414338 7.197617221899803 -0.44561189244941024 0.025400013601895057 6.521794259519733 -5.643840992925217 1.8770350107024065 50.03180955252307 -1.524107056672156 0.30813255638363957 22.85783075692789 -1.3587123193290767 0.24278036085066554 20.260798396360514 -3.8192891416345485 0.36175344775188095 24.5640048833747 -0.9431890374845783 0.1150486241252661 13.91014875738002 -0.75606253149865 0.0735414006981753 11.111016974247285 -4.810051627433361 0.9612680758867697 36.135248756970924 -1.4080880625289718 0.2613947008977432 21.031608149213415 -1.1205397317845769 0.16340689452376406 16.594807731358184 6.6173967148472235 -6.321457323699295 -5.773937191277042 -12.773783609019665 5.496003394979073 -2.9257810219102263 -5.372453894759502 -5.815056048572768 -14.457405124993981 -6.662410337351636 -18.829627253629624 7.339762562330751 -7.0539918652668 19.105195750419856 -2.383650122069211 0.6120222994818024 -3.7278732888822677 -8.159177895405834 -0.000024659227811500887 -0.0046632253664702075 -0.0017936075087067937 -22.275069874118515 -15.975937248258916 6.194887294295095 -9.564769554516706 26.10948105166362 -4.898045064787887 -5.8334192771151585 -14.361732807830933 -2.389941073993665 0.000032622027780890395 -0.02303948934150308 0.0034712987734984483
